<?xml version="1.0" encoding="UTF-8"?>
<!DOCTYPE svg PUBLIC "-//W3C//DTD SVG 1.1//EN" "http://www.w3.org/Graphics/SVG/1.1/DTD/svg11.dtd">
<svg xmlns="http://www.w3.org/2000/svg" version="1.1" width="48px" height="48px"
     style="shape-rendering:geometricPrecision; text-rendering:geometricPrecision; image-rendering:optimizeQuality; fill-rule:evenodd; clip-rule:evenodd">
<g><path style="opacity:1" fill="#000000" d="M -0.5,-0.5 C 15.5,-0.5 31.5,-0.5 47.5,-0.5C 47.5,15.5 47.5,31.5 47.5,47.5C 31.5,47.5 15.5,47.5 -0.5,47.5C -0.5,31.5 -0.5,15.5 -0.5,-0.5 Z"/></g>
<g><path style="opacity:1" fill="#ce317e" d="M 28.5,10.5 C 38.2533,9.4197 38.9199,11.0864 30.5,15.5C 28.7868,14.3646 28.1201,12.698 28.5,10.5 Z"/></g>
<g><path style="opacity:1" fill="#ce21b5" d="M 24.5,10.5 C 25.8333,10.5 27.1667,10.5 28.5,10.5C 28.1201,12.698 28.7868,14.3646 30.5,15.5C 29.8333,16.8333 28.8333,17.8333 27.5,18.5C 25.144,16.4427 24.144,13.776 24.5,10.5 Z"/></g>
<g><path style="opacity:1" fill="#b31fe1" d="M 15.5,10.5 C 18.5,10.5 21.5,10.5 24.5,10.5C 24.144,13.776 25.144,16.4427 27.5,18.5C 26.3747,20.1288 25.0414,21.6288 23.5,23C 26.3714,25.7028 29.0381,28.5361 31.5,31.5C 20.965,28.6142 15.6317,21.6142 15.5,10.5 Z"/></g>
<g><path style="opacity:1" fill="#933df1" d="M 15.5,10.5 C 15.6317,21.6142 20.965,28.6142 31.5,31.5C 33.2959,32.7927 34.9625,34.2927 36.5,36C 27.8397,36.4998 19.1731,36.6664 10.5,36.5C 10.5,27.8333 10.5,19.1667 10.5,10.5C 12.1667,10.5 13.8333,10.5 15.5,10.5 Z"/></g>
</svg>
